<?xml version="1.0" standalone="no"?>
<!DOCTYPE svg PUBLIC "-//W3C//DTD SVG 20010904//EN"
 "http://www.w3.org/TR/2001/REC-SVG-20010904/DTD/svg10.dtd">
<svg version="1.0" xmlns="http://www.w3.org/2000/svg"
 width="700.000000pt" height="700.000000pt" viewBox="0 0 700.000000 700.000000"
 preserveAspectRatio="xMidYMid meet">
<metadata>
Created by potrace 1.14, written by Peter Selinger 2001-2017
</metadata>
<g transform="translate(0.000000,700.000000) scale(0.100000,-0.100000)"
fill="#000000" stroke="none">
<path d="M650 6589 c-112 -40 -201 -130 -240 -243 -20 -59 -20 -75 -20 -2841
0 -3088 -6 -2833 66 -2941 50 -75 115 -124 209 -156 47 -16 239 -17 2850 -15
l2800 2 65 32 c36 17 82 47 102 65 51 46 103 136 117 205 9 44 11 698 9 2773
l-3 2715 -30 60 c-80 161 -258 251 -430 215 -149 -31 -190 -73 -417 -430 -101
-159 -193 -306 -206 -327 -12 -21 -78 -125 -145 -230 -67 -106 -198 -313 -291
-460 -94 -148 -189 -297 -212 -333 -23 -36 -112 -177 -199 -315 -87 -137 -206
-325 -264 -417 -58 -92 -225 -356 -371 -586 l-264 -418 -26 30 c-31 38 -17 21
-202 256 -85 107 -262 332 -394 500 -132 168 -293 373 -358 455 -147 187 -196
238 -269 286 -85 55 -165 80 -282 86 -122 7 -228 -18 -326 -75 -119 -71 -152
-116 -459 -615 -157 -256 -287 -463 -290 -462 -3 2 -5 546 -4 1210 0 856 4
1209 11 1213 6 4 852 7 1881 6 l1869 -1 13 21 c8 12 27 46 43 76 17 30 50 88
74 128 24 41 43 75 43 76 0 4 187 337 200 356 6 8 13 22 17 30 4 8 17 32 30
53 l23 37 -2332 -1 c-2283 -1 -2334 -1 -2388 -20z m5180 -3644 l0 -1775 -2332
0 -2333 0 1 364 1 364 205 333 c113 184 292 476 398 649 396 645 452 735 459
743 5 5 57 -54 117 -130 246 -311 315 -398 429 -544 66 -84 154 -196 196 -248
41 -53 109 -139 150 -191 42 -52 111 -140 154 -195 100 -126 129 -155 205
-204 100 -65 175 -86 310 -86 135 0 212 21 315 86 85 54 146 123 235 265 41
66 101 162 135 214 34 52 140 219 235 370 96 151 279 442 408 645 129 204 340
538 470 743 129 204 237 372 239 372 2 0 3 -799 3 -1775z"/>
</g>
</svg>
